<svg width="12" height="15" viewBox="0 0 12 15" fill="none" xmlns="http://www.w3.org/2000/svg">
<path d="M9.43315 2.09355H9.22664C9.15289 1.50075 8.939 1.02801 8.59973 0.675338C8.1572 0.225113 7.51554 0 6.6895 0H2.57402C0.914551 0 0 0.930465 0 2.61881C0 3.45923 0.221263 4.11206 0.663787 4.56228C1.10631 5.01251 1.74797 5.23762 2.57402 5.23762H6.6895C8.16458 5.23762 9.04963 4.49475 9.22664 3.14407H9.43315C10.9746 3.14407 10.9746 3.35418 10.9746 4.71236V6.10805C10.9746 7.46623 10.9746 7.67634 9.43315 7.67634H6.6895C4.48425 7.67634 4.16711 8.74187 4.12285 9.77739C3.45907 9.82241 2.74365 10.1376 2.74365 11.3382V13.4317C2.74365 14.7299 3.58445 15 4.28511 15H4.97103C5.67169 15 6.51249 14.7299 6.51249 13.4317V11.3382C6.51249 10.1526 5.81182 9.82241 5.14804 9.77739C5.18491 9.01951 5.3988 8.71936 6.68212 8.71936H9.42577C11.8228 8.71936 11.9998 7.72886 11.9998 6.10055V4.71236C12.0072 3.08404 11.8302 2.09355 9.43315 2.09355Z" fill="white"/>
</svg>
